<svg width="229" height="229" viewBox="0 0 229 229" fill="none" xmlns="http://www.w3.org/2000/svg">
<path d="M0 50C0 22.3858 22.3858 0 50 0H179C206.614 0 229 22.3858 229 50V179C229 206.614 206.614 229 179 229H50C22.3858 229 0 206.614 0 179V50Z" fill="#0B1224"/>
<path d="M54.4006 116.794C54.4006 153.214 83.8005 182.63 120.2 182.63C156.32 182.63 185.72 153.214 186 117.074C185.72 126.039 178.44 133.043 169.48 133.043C160.52 133.043 152.96 125.759 152.96 116.514C152.96 77.2922 152.96 135.378 152.96 96.997C152.96 69.8221 130.84 47.69 103.68 47.69C76.5205 47.69 54.4006 69.8221 54.4006 96.997V116.794ZM79.0172 88.0199C84.7893 88.0199 89.5281 92.7256 89.4924 98.5008V113.188C89.4924 118.964 84.7537 123.669 79.0172 123.669C73.2809 123.669 68.5421 118.999 68.5421 113.188V98.5008C68.5421 92.7256 73.2453 88.0199 79.0172 88.0199ZM109.725 88.0199C115.497 88.0199 120.236 92.7256 120.2 98.5008V113.188C120.2 118.964 115.461 123.669 109.725 123.669C103.989 123.669 99.2497 118.999 99.2497 113.188V98.5008C99.2497 92.7256 103.953 88.0199 109.725 88.0199Z" fill="#00C8BE"/>
</svg>
