<svg width="559" height="90" viewBox="0 0 559 90" fill="none" xmlns="http://www.w3.org/2000/svg">
<path d="M0 45.9991C0 70.242 19.57 89.8229 43.7996 89.8229C67.8429 89.8229 87.4129 70.242 87.5993 46.1855C87.4129 52.1531 82.567 56.8152 76.6028 56.8152C70.6386 56.8152 65.6063 51.9666 65.6063 45.8126C65.6063 19.7047 65.6063 58.3696 65.6063 32.8213C65.6063 14.7322 50.8821 0 32.8031 0C14.7241 0 0 14.7322 0 32.8213V45.9991ZM16.3861 26.8456C20.2283 26.8456 23.3826 29.978 23.3589 33.8223V43.5991C23.3589 47.4433 20.2046 50.5757 16.3861 50.5757C12.5677 50.5757 9.41327 47.4671 9.41327 43.5991V33.8223C9.41327 29.978 12.544 26.8456 16.3861 26.8456ZM36.8267 26.8456C40.6688 26.8456 43.8232 29.978 43.7995 33.8223V43.5991C43.7995 47.4433 40.6451 50.5757 36.8267 50.5757C33.0083 50.5757 29.8539 47.4671 29.8539 43.5991V33.8223C29.8539 29.978 32.9846 26.8456 36.8267 26.8456Z" fill="#10B981"/>
<path d="M525.778 86.6378C515.789 86.6378 507.843 83.9135 501.94 78.4649C496.038 72.9405 493.086 65.0703 493.086 54.8541V35.7838C493.086 25.5676 496.038 17.7351 501.94 12.2865C507.843 6.76216 515.789 4 525.778 4C535.768 4 543.713 6.76216 549.616 12.2865C555.519 17.7351 558.47 25.5676 558.47 35.7838V54.8541C558.47 65.0703 555.519 72.9405 549.616 78.4649C543.713 83.9135 535.768 86.6378 525.778 86.6378ZM525.778 73.2432C531.378 73.2432 535.73 71.6162 538.832 68.3622C541.935 65.1081 543.486 60.7568 543.486 55.3081V35.3297C543.486 29.8811 541.935 25.5297 538.832 22.2757C535.73 19.0216 531.378 17.3946 525.778 17.3946C520.254 17.3946 515.903 19.0216 512.724 22.2757C509.622 25.5297 508.07 29.8811 508.07 35.3297V55.3081C508.07 60.7568 509.622 65.1081 512.724 68.3622C515.903 71.6162 520.254 73.2432 525.778 73.2432Z" fill="#0B1224"/>
<path d="M394.802 85.0486V5.58918H422.613L436.348 74.8324H438.392L452.127 5.58918H479.938V85.0486H465.408V16.6H463.365L449.743 85.0486H424.997L411.375 16.6H409.332V85.0486H394.802Z" fill="#0B1224"/>
<path d="M346.458 85.0486V19.2108H323.301V5.58918H384.599V19.2108H361.442V85.0486H346.458Z" fill="#0B1224"/>
<path d="M265.215 85.0486V5.58918H316.296V19.2108H280.199V38.1676H313.118V51.7892H280.199V71.427H316.977V85.0486H265.215Z" fill="#0B1224"/>
<path d="M190.722 85.0486V5.58918H205.706V38.3946H235.219V5.58918H250.203V85.0486H235.219V52.0162H205.706V85.0486H190.722Z" fill="#0B1224"/>
<path d="M119 85.0486V5.58918H153.508C158.503 5.58918 162.854 6.45945 166.562 8.19999C170.27 9.94053 173.146 12.4 175.189 15.5784C177.232 18.7567 178.254 22.5027 178.254 26.8162V28.1784C178.254 32.9459 177.119 36.8054 174.849 39.7568C172.578 42.7081 169.778 44.8649 166.449 46.227V48.2703C169.476 48.4216 171.822 49.4811 173.486 51.4486C175.151 53.3405 175.984 55.8757 175.984 59.0541V85.0486H161V61.2108C161 59.3946 160.508 57.9189 159.524 56.7838C158.616 55.6486 157.065 55.0811 154.87 55.0811H133.984V85.0486H119ZM133.984 41.4595H151.919C155.476 41.4595 158.238 40.5135 160.205 38.6216C162.249 36.654 163.27 34.0811 163.27 30.9027V29.7676C163.27 26.5892 162.286 24.054 160.319 22.1622C158.351 20.1946 155.551 19.2108 151.919 19.2108H133.984V41.4595Z" fill="#0B1224"/>
</svg>
